<svg width="96" height="96" viewBox="0 0 96 96" fill="none" xmlns="http://www.w3.org/2000/svg">
<path d="M0 24C0 10.7452 10.7452 0 24 0H72C85.2548 0 96 10.7452 96 24V72C96 85.2548 85.2548 96 72 96H24C10.7452 96 0 85.2548 0 72V24Z" fill="url(#paint0_radial_10789_3442)"/>
<path d="M62.3428 45.1709C62.3428 45.7203 62.2294 46.2425 62.0259 46.7178L61.3659 46.0578C60.8166 45.5094 59.9259 45.5094 59.3766 46.0578C58.8281 46.6072 58.8281 47.4978 59.3766 48.0472L60.0684 48.7381C59.5631 48.9753 58.9997 49.1084 58.4053 49.1084C56.235 49.1084 54.4688 47.3422 54.4688 45.1709C54.4688 42.9997 56.235 41.2344 58.4053 41.2344C60.5766 41.2344 62.3428 42.9997 62.3428 45.1709Z" fill="#076AAB"/>
<path d="M44.4975 43.3275L43.3059 46.4579H45.6797L44.4975 43.3275ZM33.6562 58.4775V61.29H62.3438V58.4775H33.6562ZM33.6562 58.4775V61.29H62.3438V58.4775H33.6562ZM44.4975 43.3275L43.3059 46.4579H45.6797L44.4975 43.3275ZM44.4975 43.3275L43.3059 46.4579H45.6797L44.4975 43.3275ZM33.6562 58.4775V61.29H62.3438V58.4775H33.6562ZM33.6562 58.4775V61.29H62.3438V58.4775H33.6562ZM44.4975 43.3275L43.3059 46.4579H45.6797L44.4975 43.3275ZM44.4975 43.3275L43.3059 46.4579H45.6797L44.4975 43.3275ZM33.6562 58.4775V61.29H62.3438V58.4775H33.6562ZM33.6562 58.4775V61.29H62.3438V58.4775H33.6562ZM44.4975 43.3275L43.3059 46.4579H45.6797L44.4975 43.3275ZM70.5938 26.2275H43.2441L39.4144 33.8879C39.1763 34.3641 38.6888 34.665 38.1562 34.665H24V67.4775C24 68.2538 24.63 68.8838 25.4062 68.8838H70.5938C71.37 68.8838 72 68.2538 72 67.4775V27.6338C72 26.8575 71.37 26.2275 70.5938 26.2275ZM61.2188 29.9775C61.995 29.9775 62.625 30.6075 62.625 31.3838C62.625 32.16 61.995 32.79 61.2188 32.79C60.4425 32.79 59.8125 32.16 59.8125 31.3838C59.8125 30.6075 60.4425 29.9775 61.2188 29.9775ZM38.9513 49.9875L42.9647 39.4519C42.9666 39.4472 42.9713 39.4341 42.9769 39.4191C43.1362 39.0075 43.6322 38.3963 44.5012 38.3954H44.5031C45.3806 38.3963 45.8663 39.0216 46.0275 39.4163C46.035 39.4341 46.0406 39.4482 46.0425 39.4547L50.0194 49.9922C50.2931 50.7188 49.9266 51.5297 49.2 51.8044C48.7903 51.9591 48.3525 51.9094 48 51.706C47.7281 51.5494 47.5069 51.3019 47.3878 50.985L46.7409 49.2704H42.2344L41.58 50.9888C41.3053 51.7097 40.4859 52.0772 39.765 51.8025C39.0441 51.5279 38.6766 50.7085 38.9513 49.9875ZM30.8034 39.841C30.8034 39.0638 31.4334 38.4347 32.2097 38.4347H36.5091C37.2862 38.4347 37.9153 39.0638 37.9153 39.841C37.9153 40.6172 37.2862 41.2472 36.5091 41.2472H33.6159V43.6379H36.1678C36.945 43.6379 37.5741 44.2679 37.5741 45.0441C37.5741 45.8213 36.945 46.4504 36.1678 46.4504H33.6159V50.4497C33.6159 51.226 32.9859 51.856 32.2097 51.856C31.4334 51.856 30.8034 51.226 30.8034 50.4497V39.841ZM65.1562 62.6963C65.1562 63.4725 64.5262 64.1025 63.75 64.1025H32.25C31.4738 64.1025 30.8438 63.4725 30.8438 62.6963V57.0713C30.8438 56.295 31.4738 55.665 32.25 55.665H63.75C64.5262 55.665 65.1562 56.295 65.1562 57.0713V62.6963ZM64.785 51.465C64.5103 51.7397 64.1503 51.8775 63.7903 51.8775C63.4303 51.8775 63.0703 51.7397 62.7956 51.465L62.1281 50.7975C61.0603 51.5063 59.7806 51.9207 58.4053 51.9207C54.6834 51.9207 51.6562 48.8925 51.6562 45.1707C51.6562 41.4488 54.6834 38.4216 58.4053 38.4216C62.1272 38.4216 65.1553 41.4488 65.1553 45.1707C65.1553 46.5019 64.7663 47.7432 64.0978 48.7904L64.785 49.4766C65.3334 50.026 65.3334 50.9166 64.785 51.465ZM66.8184 32.79C66.0413 32.79 65.4122 32.16 65.4122 31.3838C65.4122 30.6075 66.0413 29.9775 66.8184 29.9775C67.5947 29.9775 68.2247 30.6075 68.2247 31.3838C68.2247 32.16 67.5947 32.79 66.8184 32.79ZM33.6562 61.29H62.3438V58.4775H33.6562V61.29ZM44.4975 43.3275L43.3059 46.4579H45.6797L44.4975 43.3275ZM44.4975 43.3275L43.3059 46.4579H45.6797L44.4975 43.3275ZM33.6562 58.4775V61.29H62.3438V58.4775H33.6562ZM33.6562 58.4775V61.29H62.3438V58.4775H33.6562ZM44.4975 43.3275L43.3059 46.4579H45.6797L44.4975 43.3275ZM44.4975 43.3275L43.3059 46.4579H45.6797L44.4975 43.3275ZM33.6562 58.4775V61.29H62.3438V58.4775H33.6562ZM33.6562 58.4775V61.29H62.3438V58.4775H33.6562ZM44.4975 43.3275L43.3059 46.4579H45.6797L44.4975 43.3275ZM33.6562 58.4775V61.29H62.3438V58.4775H33.6562ZM33.6562 58.4775V61.29H62.3438V58.4775H33.6562Z" fill="#076AAB"/>
<path d="M24 27.6338C24 26.8575 24.63 26.2275 25.4062 26.2275H40.0997L37.2872 31.8525H24V27.6338Z" fill="#8BD500"/>
<defs>
<radialGradient id="paint0_radial_10789_3442" cx="0" cy="0" r="1" gradientUnits="userSpaceOnUse" gradientTransform="translate(48 48) rotate(90) scale(48)">
<stop stop-color="white"/>
<stop offset="0.33" stop-color="#F4FBFF"/>
<stop offset="0.66" stop-color="#EDF8FF"/>
<stop offset="1" stop-color="#DEF2FF"/>
</radialGradient>
</defs>
</svg>
