<svg width="96" height="96" viewBox="0 0 96 96" fill="none" xmlns="http://www.w3.org/2000/svg">
<rect width="96" height="96" rx="24" fill="url(#paint0_radial_10789_3908)"/>
<mask id="mask0_10789_3908" style="mask-type:alpha" maskUnits="userSpaceOnUse" x="24" y="24" width="48" height="48">
<path fill-rule="evenodd" clip-rule="evenodd" d="M48.0004 24C56.0116 24 62.506 30.4943 62.506 38.5057C62.506 47.4276 55.179 57.2548 48.647 62.6825C48.2731 62.9931 47.7432 62.9932 47.3692 62.6828C40.8168 57.2432 33.4948 47.4757 33.4948 38.5057C33.4948 30.4943 39.9892 24 48.0004 24ZM59.9969 59.4621C62.727 60.0564 64.9466 60.8353 66.4377 61.7304C67.5228 62.3819 68.1369 63.006 68.1369 63.5446C68.1369 64.6575 66.1338 65.8458 62.8955 66.8671L62.8899 66.869L62.8892 66.8671C59.1027 68.0613 53.8405 68.7999 48.0004 68.7999C42.1603 68.7999 36.8982 68.0613 33.1117 66.8671C33.0883 66.8598 33.0651 66.853 33.0417 66.8468C29.8409 65.8301 27.864 64.6503 27.864 63.5447C27.864 63.0062 28.4781 62.3822 29.5633 61.7308C31.0542 60.8357 33.2738 60.0569 36.0039 59.4624C36.8668 59.2761 37.4153 58.4254 37.2289 57.5624C37.0425 56.6994 36.1918 56.151 35.3289 56.3374C32.2737 57.0026 29.723 57.9142 27.9257 58.9932C25.8428 60.2437 24.6641 61.7854 24.6641 63.5447C24.6641 66.2011 27.4916 68.4293 32.0692 69.8896C32.0955 69.8994 32.1222 69.9086 32.1492 69.9172C36.2296 71.204 41.8358 72 48.0004 72C54.165 72 59.7712 71.204 63.8517 69.9171L63.8511 69.9153C68.4762 68.4555 71.3368 66.2167 71.3368 63.5446C71.3368 61.7853 70.1581 60.2435 68.0751 58.9929C66.2777 57.9139 63.7272 57.0022 60.6719 56.3371C59.809 56.1507 58.9583 56.6992 58.7719 57.5621C58.5855 58.425 59.134 59.2757 59.9969 59.4621ZM48.0004 31.1063C43.9138 31.1063 40.6012 34.4191 40.6012 38.5057C40.6012 42.5921 43.9139 45.905 48.0004 45.905C52.0869 45.905 55.3996 42.5922 55.3996 38.5057C55.3997 34.4191 52.087 31.1063 48.0004 31.1063Z" fill="#076AAB"/>
</mask>
<g mask="url(#mask0_10789_3908)">
<path fill-rule="evenodd" clip-rule="evenodd" d="M48.0004 24C56.0116 24 62.506 30.4943 62.506 38.5057C62.506 47.4276 55.179 57.2548 48.647 62.6825C48.2731 62.9931 47.7432 62.9932 47.3692 62.6828C40.8168 57.2432 33.4948 47.4757 33.4948 38.5057C33.4948 30.4943 39.9892 24 48.0004 24ZM59.9969 59.4621C62.727 60.0564 64.9466 60.8353 66.4377 61.7304C67.5228 62.3819 68.1369 63.006 68.1369 63.5446C68.1369 64.6575 66.1338 65.8458 62.8955 66.8671L62.8899 66.869L62.8892 66.8671C59.1027 68.0613 53.8405 68.7999 48.0004 68.7999C42.1603 68.7999 36.8982 68.0613 33.1117 66.8671C33.0883 66.8598 33.0651 66.853 33.0417 66.8468C29.8409 65.8301 27.864 64.6503 27.864 63.5447C27.864 63.0062 28.4781 62.3822 29.5633 61.7308C31.0542 60.8357 33.2738 60.0569 36.0039 59.4624C36.8668 59.2761 37.4153 58.4254 37.2289 57.5624C37.0425 56.6994 36.1918 56.151 35.3289 56.3374C32.2737 57.0026 29.723 57.9142 27.9257 58.9932C25.8428 60.2437 24.6641 61.7854 24.6641 63.5447C24.6641 66.2011 27.4916 68.4293 32.0692 69.8896C32.0955 69.8994 32.1222 69.9086 32.1492 69.9172C36.2296 71.204 41.8358 72 48.0004 72C54.165 72 59.7712 71.204 63.8517 69.9171L63.8511 69.9153C68.4762 68.4555 71.3368 66.2167 71.3368 63.5446C71.3368 61.7853 70.1581 60.2435 68.0751 58.9929C66.2777 57.9139 63.7272 57.0022 60.6719 56.3371C59.809 56.1507 58.9583 56.6992 58.7719 57.5621C58.5855 58.425 59.134 59.2757 59.9969 59.4621ZM48.0004 31.1063C43.9138 31.1063 40.6012 34.4191 40.6012 38.5057C40.6012 42.5921 43.9139 45.905 48.0004 45.905C52.0869 45.905 55.3996 42.5922 55.3996 38.5057C55.3997 34.4191 52.087 31.1063 48.0004 31.1063Z" fill="#076AAB"/>
<circle cx="33.5" cy="38.0557" r="20.5" fill="#8BD500"/>
</g>
<defs>
<radialGradient id="paint0_radial_10789_3908" cx="0" cy="0" r="1" gradientUnits="userSpaceOnUse" gradientTransform="translate(48 48) rotate(90) scale(48)">
<stop stop-color="white"/>
<stop offset="0.33" stop-color="#F4FBFF"/>
<stop offset="0.66" stop-color="#EDF8FF"/>
<stop offset="1" stop-color="#DEF2FF"/>
</radialGradient>
</defs>
</svg>
